<svg width="500" height="500" viewBox="0 0 500 500" fill="none" xmlns="http://www.w3.org/2000/svg">
<rect width="500" height="500" fill="#CCDAED"/>
<path d="M250 419C164.948 419 96 429.855 96 443.246C96 456.635 164.948 467.491 250 467.491C335.052 467.491 404 456.635 404 443.246C404 429.855 335.052 419 250 419Z" fill="#0045A5" fill-opacity="0.5"/>
<circle cx="250.5" cy="240.5" r="166.5" stroke="#021836" stroke-opacity="0.25" stroke-width="3" stroke-linecap="round" stroke-dasharray="10 10"/>
<mask id="path-3-outside-1_1545_5652" maskUnits="userSpaceOnUse" x="95.4651" y="23" width="95" height="132" fill="black">
<rect fill="white" x="95.4651" y="23" width="95" height="132"/>
<path fill-rule="evenodd" clip-rule="evenodd" d="M181.912 70.3318C181.912 70.3567 181.912 70.3817 181.912 70.4066V119.736C181.912 134.299 170.106 146.104 155.544 146.104H129.833C115.27 146.104 103.465 134.299 103.465 119.736V68.4122C103.465 68.4002 103.475 68.3905 103.487 68.3905V68.3905C103.498 68.3905 103.508 68.3812 103.509 68.3696C104.476 47.5679 121.648 31 142.689 31C163.73 31 180.901 47.5681 181.869 68.3701C181.869 68.3814 181.879 68.3905 181.89 68.3905V68.3905C181.902 68.3905 181.912 68.4 181.912 68.4118V70.0399C181.912 70.1009 181.912 70.1621 181.912 70.2232C181.912 70.2594 181.912 70.2956 181.912 70.3318ZM168.86 70.6625C168.86 71.5915 168.811 72.5091 168.715 73.4128V116.045C168.715 130.217 157.227 141.705 143.055 141.705V141.705C128.883 141.705 117.395 130.217 117.395 116.045V69.1473C117.395 69.1343 117.406 69.1237 117.419 69.1237V69.1237C117.431 69.1237 117.441 69.1139 117.442 69.1015C118.249 55.6167 129.44 44.93 143.128 44.93C157.34 44.93 168.86 56.4508 168.86 70.6625Z"/>
</mask>
<path fill-rule="evenodd" clip-rule="evenodd" d="M181.912 70.3318C181.912 70.3567 181.912 70.3817 181.912 70.4066V119.736C181.912 134.299 170.106 146.104 155.544 146.104H129.833C115.27 146.104 103.465 134.299 103.465 119.736V68.4122C103.465 68.4002 103.475 68.3905 103.487 68.3905V68.3905C103.498 68.3905 103.508 68.3812 103.509 68.3696C104.476 47.5679 121.648 31 142.689 31C163.73 31 180.901 47.5681 181.869 68.3701C181.869 68.3814 181.879 68.3905 181.89 68.3905V68.3905C181.902 68.3905 181.912 68.4 181.912 68.4118V70.0399C181.912 70.1009 181.912 70.1621 181.912 70.2232C181.912 70.2594 181.912 70.2956 181.912 70.3318ZM168.86 70.6625C168.86 71.5915 168.811 72.5091 168.715 73.4128V116.045C168.715 130.217 157.227 141.705 143.055 141.705V141.705C128.883 141.705 117.395 130.217 117.395 116.045V69.1473C117.395 69.1343 117.406 69.1237 117.419 69.1237V69.1237C117.431 69.1237 117.441 69.1139 117.442 69.1015C118.249 55.6167 129.44 44.93 143.128 44.93C157.34 44.93 168.86 56.4508 168.86 70.6625Z" fill="#EAF0F7"/>
<path d="M181.912 70.4066L173.912 70.3699L173.912 70.3883V70.4066H181.912ZM181.912 70.3318L189.912 70.3538L189.912 70.352L181.912 70.3318ZM181.912 70.0399H173.912V70.0578L173.912 70.0758L181.912 70.0399ZM168.715 73.4128L160.76 72.5675L160.715 72.9889V73.4128H168.715ZM117.442 69.1015L109.456 68.6236L117.442 69.1015ZM103.509 68.3696L95.5172 67.9979L103.509 68.3696ZM181.869 68.3701L173.878 68.7418L181.869 68.3701ZM189.911 70.4433C189.912 70.412 189.912 70.3819 189.912 70.3538L173.912 70.3097C173.912 70.3316 173.912 70.3514 173.912 70.3699L189.911 70.4433ZM189.912 119.736V70.4066H173.912V119.736H189.912ZM129.833 154.104H155.544V138.104H129.833V154.104ZM95.4651 68.4122V119.736H111.465V68.4122H95.4651ZM142.689 23C117.354 23 96.6826 42.947 95.5172 67.9979L111.5 68.7414C112.27 52.1887 125.941 39 142.689 39V23ZM189.86 67.9984C188.695 42.9473 168.024 23 142.689 23V39C159.436 39 173.108 52.1889 173.878 68.7418L189.86 67.9984ZM189.912 70.0399V68.4118H173.912V70.0399H189.912ZM189.912 70.2232C189.912 70.1501 189.912 70.077 189.911 70.0039L173.912 70.0758C173.912 70.1249 173.912 70.174 173.912 70.2232H189.912ZM189.912 70.352C189.912 70.3103 189.912 70.2672 189.912 70.2232H173.912C173.912 70.2516 173.912 70.2809 173.912 70.3115L189.912 70.352ZM176.67 74.2581C176.796 73.0742 176.86 71.8744 176.86 70.6625H160.86C160.86 71.3087 160.826 71.9441 160.76 72.5675L176.67 74.2581ZM176.715 116.045V73.4128H160.715V116.045H176.715ZM109.395 69.1473V116.045H125.395V69.1473H109.395ZM143.128 36.93C125.182 36.93 110.515 50.9392 109.456 68.6236L125.428 69.5793C125.983 60.2942 133.699 52.93 143.128 52.93V36.93ZM176.86 70.6625C176.86 52.0325 161.758 36.93 143.128 36.93V52.93C152.921 52.93 160.86 60.8691 160.86 70.6625H176.86ZM181.89 76.3905C177.484 76.3905 173.912 72.8183 173.912 68.4118H189.912C189.912 63.9818 186.32 60.3905 181.89 60.3905V76.3905ZM117.419 77.1237C121.715 77.1237 125.177 73.7651 125.428 69.5793L109.456 68.6236C109.705 64.4627 113.147 61.1237 117.419 61.1237V77.1237ZM103.487 76.3905C107.825 76.3905 111.303 72.9695 111.5 68.7414L95.5172 67.9979C95.7128 63.793 99.1722 60.3905 103.487 60.3905V76.3905ZM125.395 69.1473C125.395 73.5526 121.824 77.1237 117.419 77.1237V61.1237C112.987 61.1237 109.395 64.716 109.395 69.1473H125.395ZM111.465 68.4122C111.465 72.8185 107.893 76.3905 103.487 76.3905V60.3905C99.0565 60.3905 95.4651 63.9819 95.4651 68.4122H111.465ZM143.055 133.705C133.302 133.705 125.395 125.798 125.395 116.045H109.395C109.395 134.635 124.465 149.705 143.055 149.705V133.705ZM129.833 138.104C119.688 138.104 111.465 129.88 111.465 119.736H95.4651C95.4651 138.717 110.852 154.104 129.833 154.104V138.104ZM173.878 68.7418C174.074 72.9699 177.553 76.3905 181.89 76.3905V60.3905C186.205 60.3905 189.665 63.7929 189.86 67.9984L173.878 68.7418ZM160.715 116.045C160.715 125.798 152.808 133.705 143.055 133.705V149.705C161.645 149.705 176.715 134.635 176.715 116.045H160.715ZM173.912 119.736C173.912 129.88 165.688 138.104 155.544 138.104V154.104C174.525 154.104 189.912 138.717 189.912 119.736H173.912Z" fill="#021836" mask="url(#path-3-outside-1_1545_5652)"/>
<path d="M181.912 70.4066L173.912 70.3699L173.912 70.3883V70.4066H181.912ZM181.912 70.3318L189.912 70.3538L189.912 70.352L181.912 70.3318ZM181.912 70.0399H173.912V70.0578L173.912 70.0758L181.912 70.0399ZM168.715 73.4128L160.76 72.5675L160.715 72.9889V73.4128H168.715ZM117.442 69.1015L109.456 68.6236L117.442 69.1015ZM103.509 68.3696L95.5172 67.9979L103.509 68.3696ZM181.869 68.3701L173.878 68.7418L181.869 68.3701ZM189.911 70.4433C189.912 70.412 189.912 70.3819 189.912 70.3538L173.912 70.3097C173.912 70.3316 173.912 70.3514 173.912 70.3699L189.911 70.4433ZM189.912 119.736V70.4066H173.912V119.736H189.912ZM129.833 154.104H155.544V138.104H129.833V154.104ZM95.4651 68.4122V119.736H111.465V68.4122H95.4651ZM142.689 23C117.354 23 96.6826 42.947 95.5172 67.9979L111.5 68.7414C112.27 52.1887 125.941 39 142.689 39V23ZM189.86 67.9984C188.695 42.9473 168.024 23 142.689 23V39C159.436 39 173.108 52.1889 173.878 68.7418L189.86 67.9984ZM189.912 70.0399V68.4118H173.912V70.0399H189.912ZM189.912 70.2232C189.912 70.1501 189.912 70.077 189.911 70.0039L173.912 70.0758C173.912 70.1249 173.912 70.174 173.912 70.2232H189.912ZM189.912 70.352C189.912 70.3103 189.912 70.2672 189.912 70.2232H173.912C173.912 70.2516 173.912 70.2809 173.912 70.3115L189.912 70.352ZM176.67 74.2581C176.796 73.0742 176.86 71.8744 176.86 70.6625H160.86C160.86 71.3087 160.826 71.9441 160.76 72.5675L176.67 74.2581ZM176.715 116.045V73.4128H160.715V116.045H176.715ZM109.395 69.1473V116.045H125.395V69.1473H109.395ZM143.128 36.93C125.182 36.93 110.515 50.9392 109.456 68.6236L125.428 69.5793C125.983 60.2942 133.699 52.93 143.128 52.93V36.93ZM176.86 70.6625C176.86 52.0325 161.758 36.93 143.128 36.93V52.93C152.921 52.93 160.86 60.8691 160.86 70.6625H176.86ZM181.89 76.3905C177.484 76.3905 173.912 72.8183 173.912 68.4118H189.912C189.912 63.9818 186.32 60.3905 181.89 60.3905V76.3905ZM117.419 77.1237C121.715 77.1237 125.177 73.7651 125.428 69.5793L109.456 68.6236C109.705 64.4627 113.147 61.1237 117.419 61.1237V77.1237ZM103.487 76.3905C107.825 76.3905 111.303 72.9695 111.5 68.7414L95.5172 67.9979C95.7128 63.793 99.1722 60.3905 103.487 60.3905V76.3905ZM125.395 69.1473C125.395 73.5526 121.824 77.1237 117.419 77.1237V61.1237C112.987 61.1237 109.395 64.716 109.395 69.1473H125.395ZM111.465 68.4122C111.465 72.8185 107.893 76.3905 103.487 76.3905V60.3905C99.0565 60.3905 95.4651 63.9819 95.4651 68.4122H111.465ZM143.055 133.705C133.302 133.705 125.395 125.798 125.395 116.045H109.395C109.395 134.635 124.465 149.705 143.055 149.705V133.705ZM129.833 138.104C119.688 138.104 111.465 129.88 111.465 119.736H95.4651C95.4651 138.717 110.852 154.104 129.833 154.104V138.104ZM173.878 68.7418C174.074 72.9699 177.553 76.3905 181.89 76.3905V60.3905C186.205 60.3905 189.665 63.7929 189.86 67.9984L173.878 68.7418ZM160.715 116.045C160.715 125.798 152.808 133.705 143.055 133.705V149.705C161.645 149.705 176.715 134.635 176.715 116.045H160.715ZM173.912 119.736C173.912 129.88 165.688 138.104 155.544 138.104V154.104C174.525 154.104 189.912 138.717 189.912 119.736H173.912Z" fill="#021836" mask="url(#path-3-outside-1_1545_5652)"/>
<mask id="path-5-inside-2_1545_5652" fill="white">
<rect x="87" y="79.4778" width="111.912" height="100.994" rx="2.94506"/>
</mask>
<rect x="87" y="79.4778" width="111.912" height="100.994" rx="2.94506" fill="#EAF0F7" stroke="#021836" stroke-width="16" mask="url(#path-5-inside-2_1545_5652)"/>
<path fill-rule="evenodd" clip-rule="evenodd" d="M149.974 126.595C153.552 124.229 155.912 120.169 155.912 115.558C155.912 108.255 149.992 102.334 142.689 102.334C135.385 102.334 129.465 108.255 129.465 115.558C129.465 119.909 131.567 123.77 134.81 126.179L133.155 157.074H151.607L149.974 126.595Z" fill="#021836"/>
<path d="M339.495 355H160V126H297.477L339.495 170.038V355Z" fill="white"/>
<path d="M297.477 126L297.477 170.039L339.6 170.039L297.477 126Z" fill="#E8E5E5"/>
<line x1="1.91472" y1="-1.91472" x2="124.457" y2="-1.91472" transform="matrix(1 0 0 -1 186.806 272.284)" stroke="#121C50" stroke-width="3.82943" stroke-linecap="round"/>
<line x1="1.91472" y1="-1.91472" x2="124.457" y2="-1.91472" transform="matrix(1 0 0 -1 186.806 263.094)" stroke="#121C50" stroke-width="3.82943" stroke-linecap="round"/>
<line x1="1.91472" y1="-1.91472" x2="73.0748" y2="-1.91472" transform="matrix(1 0 0 -1 186.806 253.137)" stroke="#121C50" stroke-width="3.82943" stroke-linecap="round"/>
<line x1="1.91472" y1="-1.91472" x2="73.1421" y2="-1.91472" transform="matrix(1 0 0 -1 186.806 310.579)" stroke="#121C50" stroke-width="3.82943" stroke-linecap="round"/>
<line x1="1.91472" y1="-1.91472" x2="73.1421" y2="-1.91472" transform="matrix(1 0 0 -1 186.806 301.388)" stroke="#121C50" stroke-width="3.82943" stroke-linecap="round"/>
<line x1="1.91472" y1="-1.91472" x2="42.6245" y2="-1.91472" transform="matrix(1 0 0 -1 186.806 291.431)" stroke="#121C50" stroke-width="3.82943" stroke-linecap="round"/>
<line x1="1.91472" y1="-1.91472" x2="124.457" y2="-1.91472" transform="matrix(1 0 0 -1 186.806 233.99)" stroke="#121C50" stroke-width="3.82943" stroke-linecap="round"/>
<line x1="1.91472" y1="-1.91472" x2="124.457" y2="-1.91472" transform="matrix(1 0 0 -1 186.806 224.799)" stroke="#121C50" stroke-width="3.82943" stroke-linecap="round"/>
<line x1="1.91472" y1="-1.91472" x2="73.0748" y2="-1.91472" transform="matrix(1 0 0 -1 186.806 214.843)" stroke="#121C50" stroke-width="3.82943" stroke-linecap="round"/>
<line x1="1.91472" y1="-1.91472" x2="124.457" y2="-1.91472" transform="matrix(1 0 0 -1 186.806 190.334)" stroke="#121C50" stroke-width="3.82943" stroke-linecap="round"/>
<line x1="1.91472" y1="-1.91472" x2="124.457" y2="-1.91472" transform="matrix(1 0 0 -1 186.806 181.144)" stroke="#121C50" stroke-width="3.82943" stroke-linecap="round"/>
<line x1="1.91472" y1="-1.91472" x2="73.0748" y2="-1.91472" transform="matrix(1 0 0 -1 186.806 171.187)" stroke="#121C50" stroke-width="3.82943" stroke-linecap="round"/>
<path d="M318.5 325L367 310L417 326.5V381C414.167 396.167 399.8 426.6 365 427C330.2 427.4 319.5 396.5 318.5 381V325Z" fill="#EAF0F7"/>
<path d="M366.5 301.312L310.625 319.938V375.812C310.625 406.675 335.638 431.688 366.5 431.688C397.362 431.688 422.375 406.675 422.375 375.812V319.938L366.5 301.312ZM411.898 375.812C411.898 400.883 391.571 421.211 366.5 421.211C341.429 421.211 321.102 400.883 321.102 375.812V327.795L366.5 311.789L411.898 327.795V375.812Z" fill="#021836"/>
<path d="M347.053 361.113C346.568 360.625 345.991 360.238 345.355 359.974C344.72 359.71 344.038 359.574 343.35 359.574C342.662 359.574 341.98 359.71 341.345 359.974C340.709 360.238 340.132 360.625 339.647 361.113C339.159 361.599 338.772 362.176 338.508 362.811C338.244 363.447 338.108 364.128 338.108 364.816C338.108 365.504 338.244 366.186 338.508 366.821C338.772 367.457 339.159 368.034 339.647 368.519L358.781 387.654C359.24 388.114 359.786 388.479 360.386 388.728C360.987 388.977 361.63 389.105 362.281 389.105C362.931 389.105 363.574 388.977 364.175 388.728C364.775 388.479 365.321 388.114 365.78 387.654L398.301 355.133C398.761 354.673 399.126 354.128 399.375 353.528C399.624 352.927 399.752 352.283 399.752 351.633C399.752 350.983 399.624 350.339 399.375 349.739C399.126 349.139 398.761 348.593 398.301 348.134L397.894 347.726C397.434 347.266 396.889 346.901 396.288 346.652C395.688 346.403 395.044 346.275 394.394 346.275C393.744 346.275 393.1 346.403 392.5 346.652C391.899 346.901 391.354 347.266 390.895 347.726L362.273 376.333L347.053 361.113Z" fill="#021836"/>
</svg>
